<svg xmlns="http://www.w3.org/2000/svg" preserveAspectRatio="xMidYMid" width="80" height="80" viewBox="0 0 80 80"><defs><style>.cls-1{fill:#000;fill-rule:evenodd}</style></defs><path d="M80.017 39.996a39.832 39.832 0 0 1-8.59 24.77c-.01-.005 2.412-12.465 2.414-24.89.001-12.352-2.418-24.669-2.42-24.68 5.393 6.817 8.596 15.432 8.596 24.8zM15.828 8.118A39.999 39.999 0 0 1 40.007-.01c11.272 0 21.457 4.665 28.728 12.161 0 0 6.05 65.817-52.907-4.033zm46.515 65.074a39.847 39.847 0 0 1-22.336 6.809c-11.839 0-22.472-5.134-29.801-13.311 0 0-4.644-68.669 52.137 6.502zM-.004 39.996c0-8.379 2.554-16.149 6.847-22.621.001-.002-2.012 11.249-2.012 22.508 0 11.247 2.013 22.502 2.014 22.503-4.297-6.357-6.849-14.514-6.849-22.39z" class="cls-1"/></svg>